<svg width="39" height="38" viewBox="0 0 39 38" fill="none" xmlns="http://www.w3.org/2000/svg">
<path d="M19.1352 37.5248C13.905 37.5248 13.2884 37.4978 11.2473 37.4104C9.65567 37.3592 8.08461 37.0425 6.6018 36.4741C4.03625 35.4971 2.00759 33.5111 1.01014 31.0001C0.451629 29.5438 0.150385 28.0051 0.119306 26.4499C0.000244141 24.4567 0.000244141 23.8034 0.000244141 18.7247C0.000244141 13.5919 0.0278835 12.9927 0.119306 11.0058C0.151065 9.45266 0.452299 7.91613 1.01014 6.46179C2.0065 3.94747 4.03846 1.95978 6.60818 0.985706C8.09356 0.436854 9.66412 0.141291 11.2516 0.111863C13.282 -0.000488281 13.9496 -0.000488281 19.1352 -0.000488281C24.4079 -0.000488281 25.0139 0.0265592 27.023 0.111863C28.6146 0.141546 30.1893 0.437077 31.6792 0.985706C34.2482 1.96088 36.2797 3.94819 37.2772 6.46179C37.8452 7.93732 38.148 9.49788 38.1723 11.0744C38.2914 13.0676 38.2914 13.7188 38.2914 18.7955C38.2914 23.8721 38.2616 24.5379 38.1723 26.5082C38.1407 28.0649 37.8387 29.6049 37.2794 31.0625C36.2794 33.5753 34.2477 35.562 31.6792 36.5386C30.1914 37.0841 28.62 37.3789 27.0315 37.4104C25.0011 37.5248 24.3356 37.5248 19.1352 37.5248ZM19.0629 3.29307C13.8624 3.29307 13.3224 3.31803 11.292 3.4075C10.0801 3.42321 8.87987 3.64207 7.74352 4.05456C6.06549 4.68291 4.73769 5.977 4.08874 7.61651C3.66398 8.74064 3.4403 9.92799 3.42752 11.1264C3.31484 13.1425 3.31484 13.671 3.31484 18.7247C3.31484 23.7181 3.33398 24.3236 3.42752 26.3272C3.44656 27.5135 3.6701 28.6882 4.08874 29.8017C4.73864 31.4402 6.06622 32.7333 7.74352 33.3616C8.8791 33.7768 10.0798 33.9958 11.292 34.0087C13.3501 34.1252 13.8922 34.1252 19.0629 34.1252C24.2782 34.1252 24.8183 34.1002 26.8317 34.0087C28.0444 33.9942 29.2455 33.7753 30.3823 33.3616C32.0501 32.7278 33.3693 31.4377 34.0179 29.8059C34.4419 28.6808 34.6655 27.4929 34.6791 26.2939H34.7025C34.7939 24.3048 34.7939 23.7743 34.7939 18.6914C34.7939 13.6086 34.7705 13.0739 34.6791 11.0869C34.6601 9.90192 34.4365 8.7286 34.0179 7.61651C33.3708 5.98237 32.0514 4.68974 30.3823 4.05456C29.2458 3.63999 28.0445 3.42107 26.8317 3.4075C24.7757 3.29307 24.2378 3.29307 19.0629 3.29307ZM19.1352 28.3349C15.1593 28.3374 11.5735 25.9958 10.05 22.4021C8.52657 18.8083 9.36553 14.6704 12.1757 11.918C14.9858 9.16569 19.2136 8.34111 22.8872 9.82886C26.5609 11.3166 28.9569 14.8236 28.9578 18.7143C28.9519 24.022 24.559 28.3246 19.1352 28.3349ZM19.1352 12.4684C15.6125 12.4684 12.7569 15.2629 12.7569 18.7102C12.7569 22.1574 15.6125 24.9519 19.1352 24.9519C22.6578 24.9519 25.5135 22.1574 25.5135 18.7102C25.5053 15.2663 22.6544 12.4764 19.1352 12.4684ZM29.3405 10.985C28.0763 10.9804 27.0547 9.97503 27.057 8.73796C27.0594 7.50089 28.0848 6.49925 29.349 6.49925C30.6131 6.49925 31.6386 7.50087 31.6409 8.73794C31.6415 9.33478 31.3992 9.90728 30.9675 10.3289C30.5358 10.7506 29.9504 10.9866 29.3405 10.985Z" fill="white"/>
</svg>
